<mxfile host="app.diagrams.net" agent="Mozilla/5.0 (Windows NT 10.0; Win64; x64) AppleWebKit/537.36 (KHTML, like Gecko) Chrome/138.0.0.0 Safari/537.36 Edg/138.0.0.0" version="28.0.6">
  <diagram name="Page-1" id="qwcW66BIu28JoRyroQlM">
    <mxGraphModel dx="1109" dy="1626" grid="1" gridSize="10" guides="1" tooltips="1" connect="1" arrows="1" fold="1" page="1" pageScale="1" pageWidth="827" pageHeight="1169" math="0" shadow="0">
      <root>
        <mxCell id="0" />
        <mxCell id="1" parent="0" />
        <mxCell id="AxBXjD8DpKCZpL--94eY-32" value="" style="group;movable=0;resizable=0;rotatable=0;deletable=0;editable=0;locked=1;connectable=0;" vertex="1" connectable="0" parent="1">
          <mxGeometry x="10" y="50" width="1410" height="930" as="geometry" />
        </mxCell>
        <mxCell id="AxBXjD8DpKCZpL--94eY-30" value="" style="rounded=0;whiteSpace=wrap;html=1;" vertex="1" parent="AxBXjD8DpKCZpL--94eY-32">
          <mxGeometry width="1410" height="930" as="geometry" />
        </mxCell>
        <mxCell id="AxBXjD8DpKCZpL--94eY-31" value="" style="rounded=0;whiteSpace=wrap;html=1;" vertex="1" parent="AxBXjD8DpKCZpL--94eY-32">
          <mxGeometry x="440" y="40" width="910" height="840" as="geometry" />
        </mxCell>
        <mxCell id="AxBXjD8DpKCZpL--94eY-1" value="Client" style="shape=umlActor;verticalLabelPosition=middle;verticalAlign=middle;html=1;labelPosition=left;align=right;" vertex="1" parent="1">
          <mxGeometry x="360" y="430" width="30" height="60" as="geometry" />
        </mxCell>
        <mxCell id="AxBXjD8DpKCZpL--94eY-2" value="Service Livraison" style="shape=umlActor;verticalLabelPosition=middle;verticalAlign=middle;html=1;labelPosition=left;align=right;" vertex="1" parent="1">
          <mxGeometry x="360" y="680" width="30" height="60" as="geometry" />
        </mxCell>
        <mxCell id="AxBXjD8DpKCZpL--94eY-3" value="Service Commercial" style="shape=umlActor;verticalLabelPosition=middle;verticalAlign=middle;html=1;labelPosition=left;align=right;" vertex="1" parent="1">
          <mxGeometry x="220" y="830" width="30" height="60" as="geometry" />
        </mxCell>
        <mxCell id="AxBXjD8DpKCZpL--94eY-7" value="Gérer les clients" style="ellipse;whiteSpace=wrap;html=1;" vertex="1" parent="1">
          <mxGeometry x="1090" y="820" width="230" height="80" as="geometry" />
        </mxCell>
        <mxCell id="AxBXjD8DpKCZpL--94eY-8" value="Voir l&#39;historique de ses commandes" style="ellipse;whiteSpace=wrap;html=1;" vertex="1" parent="1">
          <mxGeometry x="560" y="585" width="230" height="80" as="geometry" />
        </mxCell>
        <mxCell id="AxBXjD8DpKCZpL--94eY-9" value="Suivre une livraison" style="ellipse;whiteSpace=wrap;html=1;" vertex="1" parent="1">
          <mxGeometry x="850" y="560" width="230" height="80" as="geometry" />
        </mxCell>
        <mxCell id="AxBXjD8DpKCZpL--94eY-10" value="Créer un compte Client" style="ellipse;whiteSpace=wrap;html=1;" vertex="1" parent="1">
          <mxGeometry x="780" y="200" width="230" height="80" as="geometry" />
        </mxCell>
        <mxCell id="AxBXjD8DpKCZpL--94eY-11" value="Gérer son profil" style="ellipse;whiteSpace=wrap;html=1;" vertex="1" parent="1">
          <mxGeometry x="1080" y="290" width="230" height="80" as="geometry" />
        </mxCell>
        <mxCell id="AxBXjD8DpKCZpL--94eY-14" value="" style="endArrow=none;html=1;rounded=0;" edge="1" parent="1" source="AxBXjD8DpKCZpL--94eY-28" target="AxBXjD8DpKCZpL--94eY-10">
          <mxGeometry width="50" height="50" relative="1" as="geometry">
            <mxPoint x="330" y="280" as="sourcePoint" />
            <mxPoint x="380" y="230" as="targetPoint" />
          </mxGeometry>
        </mxCell>
        <mxCell id="AxBXjD8DpKCZpL--94eY-15" value="" style="endArrow=none;html=1;rounded=0;" edge="1" parent="1" source="AxBXjD8DpKCZpL--94eY-11" target="AxBXjD8DpKCZpL--94eY-28">
          <mxGeometry width="50" height="50" relative="1" as="geometry">
            <mxPoint x="630" y="310" as="sourcePoint" />
            <mxPoint x="830" y="310" as="targetPoint" />
          </mxGeometry>
        </mxCell>
        <mxCell id="AxBXjD8DpKCZpL--94eY-16" value="Réaliser une commande" style="ellipse;whiteSpace=wrap;html=1;" vertex="1" parent="1">
          <mxGeometry x="790" y="360" width="230" height="80" as="geometry" />
        </mxCell>
        <mxCell id="AxBXjD8DpKCZpL--94eY-17" value="" style="endArrow=none;html=1;rounded=0;" edge="1" parent="1" source="AxBXjD8DpKCZpL--94eY-16" target="AxBXjD8DpKCZpL--94eY-1">
          <mxGeometry width="50" height="50" relative="1" as="geometry">
            <mxPoint x="730" y="370" as="sourcePoint" />
            <mxPoint x="530" y="370" as="targetPoint" />
          </mxGeometry>
        </mxCell>
        <mxCell id="AxBXjD8DpKCZpL--94eY-18" value="" style="endArrow=none;html=1;rounded=0;" edge="1" parent="1" source="AxBXjD8DpKCZpL--94eY-9" target="AxBXjD8DpKCZpL--94eY-1">
          <mxGeometry width="50" height="50" relative="1" as="geometry">
            <mxPoint x="768" y="479" as="sourcePoint" />
            <mxPoint x="540" y="410" as="targetPoint" />
          </mxGeometry>
        </mxCell>
        <mxCell id="AxBXjD8DpKCZpL--94eY-19" value="Accéder à la facturation" style="ellipse;whiteSpace=wrap;html=1;" vertex="1" parent="1">
          <mxGeometry x="880" y="750" width="230" height="80" as="geometry" />
        </mxCell>
        <mxCell id="AxBXjD8DpKCZpL--94eY-20" value="" style="endArrow=none;html=1;rounded=0;" edge="1" parent="1" source="AxBXjD8DpKCZpL--94eY-2" target="AxBXjD8DpKCZpL--94eY-19">
          <mxGeometry width="50" height="50" relative="1" as="geometry">
            <mxPoint x="510" y="240" as="sourcePoint" />
            <mxPoint x="710" y="240" as="targetPoint" />
          </mxGeometry>
        </mxCell>
        <mxCell id="AxBXjD8DpKCZpL--94eY-21" value="" style="endArrow=none;html=1;rounded=0;" edge="1" parent="1" source="AxBXjD8DpKCZpL--94eY-8" target="AxBXjD8DpKCZpL--94eY-1">
          <mxGeometry width="50" height="50" relative="1" as="geometry">
            <mxPoint x="768" y="596" as="sourcePoint" />
            <mxPoint x="510" y="440" as="targetPoint" />
          </mxGeometry>
        </mxCell>
        <mxCell id="AxBXjD8DpKCZpL--94eY-22" value="" style="endArrow=none;html=1;rounded=0;" edge="1" parent="1" source="AxBXjD8DpKCZpL--94eY-3" target="AxBXjD8DpKCZpL--94eY-7">
          <mxGeometry width="50" height="50" relative="1" as="geometry">
            <mxPoint x="530" y="110" as="sourcePoint" />
            <mxPoint x="737" y="110" as="targetPoint" />
          </mxGeometry>
        </mxCell>
        <mxCell id="AxBXjD8DpKCZpL--94eY-23" value="" style="endArrow=blockThin;html=1;rounded=0;endFill=0;" edge="1" parent="1" source="AxBXjD8DpKCZpL--94eY-2" target="AxBXjD8DpKCZpL--94eY-1">
          <mxGeometry width="50" height="50" relative="1" as="geometry">
            <mxPoint x="400" y="600" as="sourcePoint" />
            <mxPoint x="450" y="550" as="targetPoint" />
          </mxGeometry>
        </mxCell>
        <mxCell id="AxBXjD8DpKCZpL--94eY-24" value="" style="endArrow=blockThin;html=1;rounded=0;endFill=0;" edge="1" parent="1" source="AxBXjD8DpKCZpL--94eY-3" target="AxBXjD8DpKCZpL--94eY-28">
          <mxGeometry width="50" height="50" relative="1" as="geometry">
            <mxPoint x="380" y="770" as="sourcePoint" />
            <mxPoint x="380" y="580" as="targetPoint" />
          </mxGeometry>
        </mxCell>
        <mxCell id="AxBXjD8DpKCZpL--94eY-25" value="Voir les commandes en cours" style="ellipse;whiteSpace=wrap;html=1;" vertex="1" parent="1">
          <mxGeometry x="1080" y="480" width="230" height="80" as="geometry" />
        </mxCell>
        <mxCell id="AxBXjD8DpKCZpL--94eY-26" value="" style="endArrow=none;html=1;rounded=0;" edge="1" parent="1" source="AxBXjD8DpKCZpL--94eY-25" target="AxBXjD8DpKCZpL--94eY-1">
          <mxGeometry width="50" height="50" relative="1" as="geometry">
            <mxPoint x="718" y="559" as="sourcePoint" />
            <mxPoint x="490" y="490" as="targetPoint" />
          </mxGeometry>
        </mxCell>
        <mxCell id="AxBXjD8DpKCZpL--94eY-27" value="" style="endArrow=none;html=1;rounded=0;" edge="1" parent="1" source="AxBXjD8DpKCZpL--94eY-3" target="AxBXjD8DpKCZpL--94eY-19">
          <mxGeometry width="50" height="50" relative="1" as="geometry">
            <mxPoint x="510" y="730" as="sourcePoint" />
            <mxPoint x="720" y="762" as="targetPoint" />
          </mxGeometry>
        </mxCell>
        <mxCell id="AxBXjD8DpKCZpL--94eY-28" value="Utilisateur lambda" style="shape=umlActor;verticalLabelPosition=middle;verticalAlign=middle;html=1;labelPosition=left;align=right;" vertex="1" parent="1">
          <mxGeometry x="220" y="260" width="30" height="60" as="geometry" />
        </mxCell>
        <mxCell id="AxBXjD8DpKCZpL--94eY-29" value="" style="endArrow=blockThin;html=1;rounded=0;endFill=0;" edge="1" parent="1" source="AxBXjD8DpKCZpL--94eY-1" target="AxBXjD8DpKCZpL--94eY-28">
          <mxGeometry width="50" height="50" relative="1" as="geometry">
            <mxPoint x="370" y="750" as="sourcePoint" />
            <mxPoint x="370" y="560" as="targetPoint" />
          </mxGeometry>
        </mxCell>
        <mxCell id="AxBXjD8DpKCZpL--94eY-33" value="Voir l&#39;ensemble des livraisons" style="ellipse;whiteSpace=wrap;html=1;" vertex="1" parent="1">
          <mxGeometry x="1100" y="670" width="230" height="80" as="geometry" />
        </mxCell>
        <mxCell id="AxBXjD8DpKCZpL--94eY-34" value="" style="endArrow=none;html=1;rounded=0;" edge="1" parent="1" source="AxBXjD8DpKCZpL--94eY-2" target="AxBXjD8DpKCZpL--94eY-33">
          <mxGeometry width="50" height="50" relative="1" as="geometry">
            <mxPoint x="520" y="720" as="sourcePoint" />
            <mxPoint x="985" y="767" as="targetPoint" />
          </mxGeometry>
        </mxCell>
        <mxCell id="AxBXjD8DpKCZpL--94eY-35" value="Fonctionnalités de l&#39;application Livrai" style="text;html=1;align=center;verticalAlign=middle;whiteSpace=wrap;rounded=0;" vertex="1" parent="1">
          <mxGeometry x="450" y="90" width="210" height="30" as="geometry" />
        </mxCell>
        <mxCell id="AxBXjD8DpKCZpL--94eY-36" value="Connexion / Déconnexion" style="ellipse;whiteSpace=wrap;html=1;" vertex="1" parent="1">
          <mxGeometry x="540" y="140" width="230" height="80" as="geometry" />
        </mxCell>
        <mxCell id="AxBXjD8DpKCZpL--94eY-37" value="" style="endArrow=none;html=1;rounded=0;" edge="1" parent="1" source="AxBXjD8DpKCZpL--94eY-28" target="AxBXjD8DpKCZpL--94eY-36">
          <mxGeometry width="50" height="50" relative="1" as="geometry">
            <mxPoint x="540" y="301" as="sourcePoint" />
            <mxPoint x="1073" y="260" as="targetPoint" />
          </mxGeometry>
        </mxCell>
      </root>
    </mxGraphModel>
  </diagram>
</mxfile>
